<?xml version="1.0" encoding="UTF-8"?>
<svg width="24px" height="24px" viewBox="0 0 24 24" version="1.1" xmlns="http://www.w3.org/2000/svg" xmlns:xlink="http://www.w3.org/1999/xlink">
    <!-- Generator: Sketch 52.1 (67048) - http://www.bohemiancoding.com/sketch -->
    <title>Icons/outline/award</title>
    <desc>Created with Sketch.</desc>
    <g id="Icons/outline/award" stroke="none" stroke-width="1" fill="none" fill-rule="evenodd" stroke-linecap="round" stroke-linejoin="round">
        <g id="Group" stroke="#000000" stroke-width="1.5">
            <g id="award-medal">
                <circle id="Oval" cx="12" cy="15" r="8.25"></circle>
                <path d="M12.531,10.292 L13.779,12.75 L15.906,12.75 C16.1456413,12.7441472 16.3643585,12.8858239 16.4569951,13.1069136 C16.5496316,13.3280033 16.4972363,13.5832761 16.325,13.75 L14.372,15.672 L15.454,18.157 C15.551803,18.3903853 15.4896042,18.6601592 15.2994882,18.8271623 C15.1093721,18.9941653 14.8338313,19.0210708 14.615,18.894 L12,17.419 L9.385,18.89 C9.16616873,19.0170708 8.89062787,18.9901653 8.70051182,18.8231623 C8.51039578,18.6561592 8.44819701,18.3863853 8.546,18.153 L9.628,15.668 L7.675,13.746 C7.50276373,13.5792761 7.45036836,13.3240033 7.54300494,13.1029136 C7.63564152,12.8818239 7.85435874,12.7401472 8.094,12.746 L10.221,12.746 L11.47,10.288 C11.5746479,10.0917325 11.7792836,9.96945956 12.0017053,9.9702981 C12.224127,9.97113663 12.427835,10.094949 12.531,10.292 Z" id="Shape"></path>
                <path d="M8.25,0.75 L9.944,7.008" id="Shape"></path>
                <path d="M4.807,10.958 L0.75,0.75" id="Shape"></path>
                <path d="M15.75,0.75 L14.056,7.008" id="Shape"></path>
                <path d="M19.193,10.958 L23.25,0.75" id="Shape"></path>
            </g>
        </g>
    </g>
</svg>