<?xml version="1.0" encoding="UTF-8"?>
<svg width="24px" height="24px" viewBox="0 0 24 24" version="1.1" xmlns="http://www.w3.org/2000/svg" xmlns:xlink="http://www.w3.org/1999/xlink">
    <!-- Generator: Sketch 52.1 (67048) - http://www.bohemiancoding.com/sketch -->
    <title>Icons/outline/dance</title>
    <desc>Created with Sketch.</desc>
    <g id="Icons/outline/dance" stroke="none" stroke-width="1" fill="none" fill-rule="evenodd" stroke-linecap="round" stroke-linejoin="round">
        <g id="Group" stroke="#000000" stroke-width="1.5">
            <g id="Regular">
                <path d="M18.75,12 C20.286964,11.5792827 21.6870314,10.7635822 22.811,9.634 C23.1898802,9.25494121 23.3377544,8.70254628 23.19892,8.18489704 C23.0600855,7.66724779 22.6556346,7.26298747 22.1379199,7.12439703 C21.6202053,6.98580658 21.0678802,7.1339412 20.689,7.513 C19.5270126,8.66823286 17.9565213,9.31892144 16.318,9.324 L15.932,9.324 C14.2934787,9.31892144 12.7229874,8.66823286 11.561,7.513 C11.1821198,7.13394119 10.6297947,6.98580657 10.11208,7.12439701 C9.59436541,7.26298746 9.18991448,7.66724778 9.05108002,8.18489703 C8.91224556,8.70254628 9.06011982,9.25494121 9.439,9.634 C10.5629686,10.7635822 11.963036,11.5792827 13.5,12 L13.5,14.55 L11.007,16.332 C10.2186858,16.894733 9.75055241,17.8034406 9.75,18.772 L9.75,21.75 C9.75000002,22.5784271 10.4215729,23.25 11.25,23.25 C12.0784271,23.25 12.75,22.5784271 12.75,21.75 L12.75,18.772 L15.75,16.629 L15.75,18.129 C15.7526737,18.9240839 16.0684757,19.6861046 16.629,20.25 L19.189,22.811 C19.7749741,23.3969741 20.7250259,23.3969741 21.311,22.811 C21.8969741,22.2250259 21.8969741,21.2749741 21.311,20.689 L18.75,18.129 L18.75,12 Z" id="Shape"></path>
                <circle id="Oval" cx="16.5" cy="3.75" r="2.625"></circle>
                <circle id="Oval" cx="2.25" cy="6.75" r="1.5"></circle>
                <path d="M4.886,0.75 C4.21840486,0.916994598 3.75007551,1.51683544 3.75,2.205 L3.75,6.75" id="Shape"></path>
                <circle id="Oval" cx="5.25" cy="15.75" r="1.5"></circle>
                <path d="M6.75,12 L6.75,15.75" id="Shape"></path>
            </g>
        </g>
    </g>
</svg>