<?xml version="1.0" encoding="UTF-8"?>
<svg width="24px" height="24px" viewBox="0 0 24 24" version="1.1" xmlns="http://www.w3.org/2000/svg" xmlns:xlink="http://www.w3.org/1999/xlink">
    <!-- Generator: Sketch 52.1 (67048) - http://www.bohemiancoding.com/sketch -->
    <title>Icons/outline/design</title>
    <desc>Created with Sketch.</desc>
    <g id="Icons/outline/design" stroke="none" stroke-width="1" fill="none" fill-rule="evenodd" stroke-linecap="round" stroke-linejoin="round">
        <g id="Group" stroke="#000000" stroke-width="1.5">
            <g id="vectors-pen-flat">
                <path d="M9.688,3.181 C8.69004194,4.17632233 8.44109127,5.69862748 9.07,6.96 L11.4,11.632 C11.5124364,11.8570629 11.7424145,11.9992509 11.994,11.9992509 C12.2455855,11.9992509 12.4755636,11.8570629 12.588,11.632 L14.929,6.966 C15.5609407,5.70645536 15.316035,4.1838512 14.321,3.186" id="Shape"></path>
                <path d="M15,0.75 L9,0.75" id="Shape"></path>
                <path d="M13.5,16.6 C17.3975959,17.1263643 20.7384844,19.6473819 22.314,23.251" id="Shape"></path>
                <path d="M1.686,23.25 C3.26178804,19.6467696 6.60262612,17.1261691 10.5,16.6" id="Shape"></path>
                <path d="M1.5,16.5 L10.5,16.5" id="Shape"></path>
                <path d="M13.5,16.5 L22.5,16.5" id="Shape"></path>
                <rect id="Rectangle-path" x="10.5" y="15" width="3" height="3"></rect>
            </g>
        </g>
    </g>
</svg>