<?xml version="1.0" encoding="UTF-8"?>
<svg width="24px" height="24px" viewBox="0 0 24 24" version="1.1" xmlns="http://www.w3.org/2000/svg" xmlns:xlink="http://www.w3.org/1999/xlink">
    <!-- Generator: Sketch 52.1 (67048) - http://www.bohemiancoding.com/sketch -->
    <title>Icons/outline/fashion</title>
    <desc>Created with Sketch.</desc>
    <g id="Icons/outline/fashion" stroke="none" stroke-width="1" fill="none" fill-rule="evenodd" stroke-linecap="round" stroke-linejoin="round">
        <g id="Group" stroke="#000000" stroke-width="1.5">
            <g id="Regular">
                <path d="M21.007,12.54 C21.1294244,12.7165171 21.1294244,12.9504829 21.007,13.127 C18.8402622,16.0248027 15.3796492,17.6622471 11.765,17.5 C8.1503864,17.6620701 4.68985203,16.0246629 2.523,13.127 C2.39999396,12.9506653 2.39999396,12.7163347 2.523,12.54 C4.68985203,9.64233707 8.1503864,8.00492993 11.765,8.167 C15.3795424,8.00528382 18.8399195,9.64261655 21.007,12.54 Z" id="Shape"></path>
                <circle id="Oval" cx="11.765" cy="12.834" r="4.667"></circle>
                <path d="M11.765,12.459 C11.9721068,12.459 12.14,12.6268932 12.14,12.834" id="Shape"></path>
                <path d="M11.39,12.834 C11.39,12.6268932 11.5578932,12.459 11.765,12.459" id="Shape"></path>
                <path d="M11.765,13.209 C11.5578932,13.209 11.39,13.0411068 11.39,12.834" id="Shape"></path>
                <path d="M12.14,12.834 C12.14,13.0411068 11.9721068,13.209 11.765,13.209" id="Shape"></path>
                <path d="M20.819,12.283 C22.362275,11.7970557 23.3687664,10.313609 23.25,8.7" id="Shape"></path>
                <path d="M17.524,9.524 C18.6967758,8.51539321 19.0683889,6.85655103 18.438,5.444" id="Shape"></path>
                <path d="M12.524,8.187 C13.3412302,6.80165399 13.1698501,5.04702857 12.1,3.846" id="Shape"></path>
                <path d="M8.2,8.642 C8.13090968,7.0497173 7.02855782,5.689947 5.485,5.293" id="Shape"></path>
                <path d="M4.084,10.835 C3.59248012,9.44064508 2.26216053,8.5186933 0.784,8.548" id="Shape"></path>
            </g>
        </g>
    </g>
</svg>