<?xml version="1.0" encoding="UTF-8"?>
<svg width="20px" height="20px" viewBox="0 0 20 20" version="1.1" xmlns="http://www.w3.org/2000/svg" xmlns:xlink="http://www.w3.org/1999/xlink">
    <!-- Generator: Sketch 52.1 (67048) - http://www.bohemiancoding.com/sketch -->
    <title>icons/outline/feedback</title>
    <desc>Created with Sketch.</desc>
    <g id="icons/outline/feedback" stroke="none" stroke-width="1" fill="none" fill-rule="evenodd" stroke-linecap="round" stroke-linejoin="round">
        <g id="Users-/-Geometric-Close-Up-Single-User-Actions-Neutral-/-single-neutral-actions-add" stroke="#000000" stroke-width="1.5">
            <g id="Group">
                <g id="content-browser-edit">
                    <path d="M15.6216667,1.875 L1.87166667,1.875 C1.18131073,1.875 0.621666667,2.43464406 0.621666667,3.125 L0.621666667,16.875 C0.621666667,17.5653559 1.18131073,18.125 1.87166667,18.125 L16.8716667,18.125 C17.5620226,18.125 18.1216667,17.5653559 18.1216667,16.875 L18.1216667,9.375" id="Shape"></path>
                    <path d="M0.621666667,5.625 L11.2466667,5.625" id="Shape"></path>
                    <path d="M18.985,5.3875 L14.2158333,10.1566667 L11.8716667,10.625 L12.3408333,8.28166667 L17.11,3.5125 C17.357754,3.26442041 17.693976,3.12502334 18.0445833,3.12502334 C18.3951907,3.12502334 18.7314127,3.26442041 18.9791667,3.5125 L18.985,3.5175 C19.5008106,4.03412454 19.5008106,4.87087546 18.985,5.3875 Z" id="Shape"></path>
                    <path d="M4.37166667,10.625 L8.12166667,10.625" id="Shape"></path>
                    <path d="M4.37166667,14.375 L12.4966667,14.375" id="Shape"></path>
                </g>
            </g>
        </g>
    </g>
</svg>