<svg xmlns="http://www.w3.org/2000/svg" viewBox="0 0 24 24"><defs><style>.a{fill:none;stroke:currentColor;stroke-linecap:round;stroke-linejoin:round;stroke-width:1.5px;}</style></defs><title>hyperlink-circle</title><path class="a" d="M12.655,17.993a4.558,4.558,0,0,1-6.047,2.178h0A4.558,4.558,0,0,1,4.43,14.124l1.382-2.937a4.557,4.557,0,0,1,6.046-2.178h0A4.543,4.543,0,0,1,14.369,12.2"/><path class="a" d="M11.846,6.107a4.558,4.558,0,0,1,6.047-2.178h0a4.558,4.558,0,0,1,2.178,6.046l-1.382,2.937a4.558,4.558,0,0,1-6.047,2.178h0a4.533,4.533,0,0,1-2.352-2.619"/></svg>