<?xml version="1.0" encoding="UTF-8"?>
<svg width="24px" height="24px" viewBox="0 0 24 24" version="1.1" xmlns="http://www.w3.org/2000/svg" xmlns:xlink="http://www.w3.org/1999/xlink">
    <!-- Generator: Sketch 52.1 (67048) - http://www.bohemiancoding.com/sketch -->
    <title>Icons/outline/key</title>
    <desc>Created with Sketch.</desc>
    <g id="Icons/outline/key" stroke="none" stroke-width="1" fill="none" fill-rule="evenodd" stroke-linecap="round" stroke-linejoin="round">
        <g id="Group" stroke="#000000" stroke-width="1.5">
            <g id="login-key">
                <path d="M12.818,14.517 L15.363,11.972 L17.115,12.442 C17.6570206,12.586556 18.2349997,12.4313253 18.6316625,12.0346625 C19.0283253,11.6379997 19.183556,11.0600206 19.039,10.518 L18.569,8.766 L19.353,7.982 L21.105,8.452 C21.6471131,8.59721997 22.2255209,8.44221538 22.6223681,8.04536813 C23.0192154,7.64852088 23.17422,7.07011312 23.029,6.528 L22.56,4.776 C23.4801064,3.85561746 23.4798825,2.36360639 22.5595,1.4435 C21.6391175,0.523393607 20.1471064,0.523617464 19.227,1.444 L9.486,11.185 C6.71729716,10.0111163 3.505,10.9637339 1.82387106,13.4572302 C0.14274213,15.9507265 0.464227568,19.2858397 2.59069392,21.4123061 C4.71716027,23.5387724 8.05227352,23.8602579 10.5457698,22.1791289 C13.0392661,20.498 13.9918837,17.2857028 12.818,14.517 Z" id="Shape"></path>
                <circle id="Oval" cx="5.922" cy="18.081" r="1.571"></circle>
            </g>
        </g>
    </g>
</svg>