<svg xmlns="http://www.w3.org/2000/svg" viewBox="0 0 24 24"><defs><style>.a{fill:none;stroke:currentColor;stroke-linecap:round;stroke-linejoin:round;stroke-width:1.5px;}</style></defs><title>link-broken-2</title><line class="a" x1="5.25" y1="12.373" x2="2.25" y2="12.373"/><line class="a" x1="5.25" y1="15.373" x2="3.75" y2="16.873"/><line class="a" x1="5.25" y1="9.373" x2="3.75" y2="7.873"/><line class="a" x1="18.75" y1="12.373" x2="21.75" y2="12.373"/><line class="a" x1="18.75" y1="15.373" x2="20.25" y2="16.873"/><line class="a" x1="18.75" y1="9.373" x2="20.25" y2="7.873"/><path class="a" d="M8.25,9.373v-4.5A3.762,3.762,0,0,1,12,1.123h0a3.761,3.761,0,0,1,3.75,3.75v5.25A3.763,3.763,0,0,1,13.5,13.558a3.709,3.709,0,0,1-1.5.315"/><path class="a" d="M15.75,14.623v4.5A3.76,3.76,0,0,1,12,22.873h0a3.761,3.761,0,0,1-3.75-3.75v-4.5A3.762,3.762,0,0,1,12,10.873"/></svg>