<svg xmlns="http://www.w3.org/2000/svg" viewBox="0 0 24 24"><defs><style>.a{fill:none;stroke:currentColor;stroke-linecap:round;stroke-linejoin:round;stroke-width:1.5px;}</style></defs><title>link-broken-1</title><path class="a" d="M16.5,15.749h1.875A3.963,3.963,0,0,0,22.5,12h0a3.962,3.962,0,0,0-4.125-3.75H16.5"/><path class="a" d="M7.5,15.749H5.625A3.963,3.963,0,0,1,1.5,12h0a3.963,3.963,0,0,1,4.125-3.75H7.5"/><line class="a" x1="12" y1="5.249" x2="12" y2="0.749"/><line class="a" x1="9" y1="5.249" x2="7.5" y2="3.749"/><line class="a" x1="15" y1="5.249" x2="16.5" y2="3.749"/><line class="a" x1="12" y1="18.749" x2="12" y2="23.249"/><line class="a" x1="9" y1="18.749" x2="7.5" y2="20.249"/><line class="a" x1="15" y1="18.749" x2="16.5" y2="20.249"/></svg>