<svg xmlns="http://www.w3.org/2000/svg" viewBox="0 0 24 24"><defs><style>.a{fill:none;stroke:currentColor;stroke-linecap:round;stroke-linejoin:round;stroke-width:1.5px;}</style></defs><title>list-remove</title><line class="a" x1="5.25" y1="2.123" x2="20.25" y2="2.123"/><line class="a" x1="5.25" y1="8.123" x2="20.25" y2="8.123"/><line class="a" x1="5.25" y1="14.123" x2="8.25" y2="14.123"/><path class="a" d="M1.125,1.748a.375.375,0,1,1-.375.375.375.375,0,0,1,.375-.375"/><path class="a" d="M1.125,7.748a.375.375,0,1,1-.375.375.375.375,0,0,1,.375-.375"/><path class="a" d="M1.125,13.748a.375.375,0,1,1-.375.375.375.375,0,0,1,.375-.375"/><circle class="a" cx="17.25" cy="17.123" r="6"/><line class="a" x1="14.25" y1="17.123" x2="20.25" y2="17.123"/></svg>