<?xml version="1.0" encoding="UTF-8"?>
<svg width="20px" height="20px" viewBox="0 0 20 20" version="1.1" xmlns="http://www.w3.org/2000/svg" xmlns:xlink="http://www.w3.org/1999/xlink">
    <!-- Generator: Sketch 52.4 (67378) - http://www.bohemiancoding.com/sketch -->
    <title>Icons/outline/medal</title>
    <desc>Created with Sketch.</desc>
    <g id="Icons/outline/medal" stroke="none" stroke-width="1" fill="none" fill-rule="evenodd" stroke-linecap="round" stroke-linejoin="round">
        <g id="Group" stroke="#000000" stroke-width="1.5">
            <g id="award-medal">
                <circle id="Oval" cx="10" cy="12.5" r="6.875"></circle>
                <path d="M10.4425,8.57666667 L11.4825,10.625 L13.255,10.625 C13.4547011,10.6201227 13.6369654,10.7381866 13.7141626,10.922428 C13.7913597,11.1066694 13.7476969,11.3193968 13.6041667,11.4583333 L11.9766667,13.06 L12.8783333,15.1308333 C12.9598358,15.3253211 12.9080035,15.5501327 12.7495735,15.6893019 C12.5911434,15.828471 12.3615261,15.8508923 12.1791667,15.745 L10,14.5158333 L7.82083333,15.7416667 C7.63847394,15.847559 7.40885656,15.8251377 7.25042652,15.6859685 C7.09199649,15.5467994 7.04016418,15.3219877 7.12166667,15.1275 L8.02333333,13.0566667 L6.39583333,11.455 C6.25230311,11.3160634 6.2086403,11.1033361 6.28583745,10.9190946 C6.3630346,10.7348532 6.54529895,10.6167893 6.745,10.6216667 L8.5175,10.6216667 L9.55833333,8.57333333 C9.64553989,8.40977706 9.81606965,8.30788297 10.0014211,8.30858175 C10.1867725,8.30928053 10.3565291,8.41245751 10.4425,8.57666667 Z" id="Shape"></path>
                <path d="M6.875,0.625 L8.28666667,5.84" id="Shape"></path>
                <path d="M4.00583333,9.13166667 L0.625,0.625" id="Shape"></path>
                <path d="M13.125,0.625 L11.7133333,5.84" id="Shape"></path>
                <path d="M15.9941667,9.13166667 L19.375,0.625" id="Shape"></path>
            </g>
        </g>
    </g>
</svg>