<?xml version="1.0" encoding="UTF-8"?>
<svg width="20px" height="20px" viewBox="0 0 20 20" version="1.1" xmlns="http://www.w3.org/2000/svg" xmlns:xlink="http://www.w3.org/1999/xlink">
    <!-- Generator: Sketch 52.4 (67378) - http://www.bohemiancoding.com/sketch -->
    <title>Icons/outline/money_bag</title>
    <desc>Created with Sketch.</desc>
    <g id="Icons/outline/money_bag" stroke="none" stroke-width="1" fill="none" fill-rule="evenodd" stroke-linecap="round" stroke-linejoin="round">
        <g id="Group" stroke="#000000" stroke-width="1.5">
            <g id="money-bag-dollar">
                <path d="M11.3116667,10.625 L9.6175,10.625 C9.08198177,10.625374 8.62188899,11.0053275 8.5202678,11.5311156 C8.41864661,12.0569036 8.70402221,12.5809368 9.20083333,12.7808333 L10.9208333,13.4691667 C11.4176445,13.6690632 11.7030201,14.1930964 11.6013989,14.7188844 C11.4997777,15.2446725 11.0396849,15.624626 10.5041667,15.625 L8.81166667,15.625" id="Shape"></path>
                <path d="M10.0616667,10.625 L10.0616667,10" id="Shape"></path>
                <path d="M10.0616667,16.25 L10.0616667,15.625" id="Shape"></path>
                <path d="M5.68666667,6.875 L14.4366667,6.875" id="Shape"></path>
                <path d="M13.025,4.19666667 L14.2233333,1.8 C14.3434065,1.55944087 14.2961797,1.2690472 14.1060662,1.07893375 C13.9159528,0.888820298 13.6255591,0.841593544 13.385,0.961666667 L11.8016667,1.75166667 C11.5197934,1.89237313 11.1772593,1.80129263 11.0025,1.53916667 L10.5833333,0.903333333 C10.4674126,0.729486379 10.272284,0.625068102 10.0633333,0.625068102 C9.85438267,0.625068102 9.65925407,0.729486379 9.54333333,0.903333333 L9.11916667,1.53916667 C8.94463858,1.80161539 8.60183287,1.8927681 8.32,1.75166667 L6.73916667,0.961666667 C6.49856118,0.842168949 6.20853148,0.889559323 6.01847569,1.07942638 C5.8284199,1.26929344 5.78074139,1.55927591 5.9,1.8 L7.075,4.15" id="Shape"></path>
                <path d="M6.03083333,8.75 L3.73083333,11.4166667 C2.58266042,12.9091627 2.38214565,14.9243508 3.21370603,16.6138338 C4.04526641,18.3033168 5.76445854,19.3736287 7.6475,19.3741667 L12.4725,19.3741667 C14.3555415,19.3736287 16.0747336,18.3033168 16.906294,16.6138338 C17.7378543,14.9243508 17.5373396,12.9091627 16.3891667,11.4166667 L14.0891667,8.75" id="Shape"></path>
            </g>
        </g>
    </g>
</svg>