<?xml version="1.0" encoding="UTF-8"?>
<svg width="24px" height="24px" viewBox="0 0 24 24" version="1.1" xmlns="http://www.w3.org/2000/svg" xmlns:xlink="http://www.w3.org/1999/xlink">
    <!-- Generator: Sketch 52.1 (67048) - http://www.bohemiancoding.com/sketch -->
    <title>icons/outline/reply</title>
    <desc>Created with Sketch.</desc>
    <g id="icons/outline/reply" stroke="none" stroke-width="1" fill="none" fill-rule="evenodd" stroke-linecap="round" stroke-linejoin="round">
        <g id="Group" stroke="#000000" stroke-width="1.5">
            <g id="navigation-left">
                <path d="M4.415,8.662 C8.07603925,6.09800487 12.8606681,5.78750156 16.8223902,7.85680989 C20.7841124,9.92611823 23.2627744,14.0304233 23.2500979,18.5000001 C23.25,14.3578644 19.8921356,11 15.75,11 C13.3909654,11.0017477 11.1735657,12.1260421 9.778,14.028 L12.97,17.22 C13.1843488,17.4346156 13.2483229,17.7572132 13.1320953,18.0373852 C13.0158677,18.3175573 12.7423236,18.5001376 12.439,18.5 L2.25,18.5 C1.85217527,18.5 1.4706444,18.3419647 1.18933983,18.0606602 C0.908035261,17.7793556 0.75,17.3978247 0.75,17 L0.75,6.808 C0.749862449,6.50467636 0.932442692,6.23113232 1.21261476,6.11490469 C1.49278682,5.99867706 1.81538439,6.06265124 2.03,6.277 L4.415,8.662 Z" id="Shape"></path>
            </g>
        </g>
    </g>
</svg>