<?xml version="1.0" encoding="UTF-8"?>
<svg width="24px" height="24px" viewBox="0 0 24 24" version="1.1" xmlns="http://www.w3.org/2000/svg" xmlns:xlink="http://www.w3.org/1999/xlink">
    <!-- Generator: Sketch 52.1 (67048) - http://www.bohemiancoding.com/sketch -->
    <title>Icons/outline/saving</title>
    <desc>Created with Sketch.</desc>
    <g id="Icons/outline/saving" stroke="none" stroke-width="1" fill="none" fill-rule="evenodd" stroke-linecap="round" stroke-linejoin="round">
        <g id="Group" stroke="#000000" stroke-width="1.5">
            <g id="saving-piggy-bank">
                <path d="M23.25,9.5 C23.25,11.1568542 21.9068542,12.5 20.25,12.5" id="Shape"></path>
                <path d="M8.25,8 C10.140551,7.06426926 12.359449,7.06426926 14.25,8" id="Shape"></path>
                <path d="M6.375,11 C6.16789322,11 6,11.1678932 6,11.375 C6,11.5821068 6.16789322,11.75 6.375,11.75 C6.58210678,11.75 6.75,11.5821068 6.75,11.375 C6.75,11.1678932 6.58210678,11 6.375,11" id="Shape"></path>
                <path d="M7.9,4.883 C6.726,2.756 3.75,2.75 3.75,2.75 L4.376,7.134 C3.55742853,8.02605558 2.95039362,9.09110108 2.6,10.25 L0.75,10.25 L0.75,16.25 L3.24,16.25 C3.75784496,17.1579558 4.43933201,17.9621784 5.25,18.622 L5.25,21.5 C5.25,21.9142136 5.58578644,22.25 6,22.25 L7.5,22.25 C7.91421356,22.25 8.25,21.9142136 8.25,21.5 L8.25,20.259 C10.1964383,20.9098725 12.3011882,20.9137312 14.25,20.27 L14.25,21.5 C14.25,21.9142136 14.5857864,22.25 15,22.25 L16.5,22.25 C16.9142136,22.25 17.25,21.9142136 17.25,21.5 L17.25,18.637 C19.1237242,17.1479455 20.2259157,14.8932291 20.25,12.5 C20.25,6.006 13.2,3.111 7.9,4.883 Z" id="Shape"></path>
            </g>
        </g>
    </g>
</svg>