<?xml version="1.0" encoding="UTF-8"?>
<svg width="24px" height="24px" viewBox="0 0 24 24" version="1.1" xmlns="http://www.w3.org/2000/svg" xmlns:xlink="http://www.w3.org/1999/xlink">
    <!-- Generator: Sketch 52.1 (67048) - http://www.bohemiancoding.com/sketch -->
    <title>icons/outline/settings</title>
    <desc>Created with Sketch.</desc>
    <g id="icons/outline/settings" stroke="none" stroke-width="1" fill="none" fill-rule="evenodd" stroke-linecap="round" stroke-linejoin="round">
        <g id="Group" stroke="#000000" stroke-width="1.5">
            <g id="cog">
                <path d="M10.546,2.438 C10.9171092,2.84994697 11.4455432,3.08514008 12,3.08514008 C12.5544568,3.08514008 13.0828908,2.84994697 13.454,2.438 L14.4,1.4 C14.9555625,0.785142149 15.837901,0.58635854 16.6034533,0.903580077 C17.3690057,1.22080162 17.8521484,1.98539902 17.81,2.813 L17.739,4.213 C17.7112304,4.76527242 17.9182798,5.30353721 18.3090029,5.6948318 C18.699726,6.08612639 19.2376876,6.29396239 19.79,6.267 L21.19,6.196 C22.0170422,6.15522596 22.7803996,6.63885427 23.0968065,7.40406534 C23.4132134,8.16927641 23.2143254,9.05078331 22.6,9.606 L21.558,10.546 C21.1465787,10.9176184 20.9117845,11.4460924 20.9117845,12.0005 C20.9117845,12.5549076 21.1465787,13.0833816 21.558,13.455 L22.6,14.395 C23.2148579,14.9505625 23.4136415,15.832901 23.0964199,16.5984533 C22.7791984,17.3640057 22.014601,17.8471484 21.187,17.805 L19.787,17.734 C19.2334763,17.7055271 18.6938175,17.9129818 18.3018996,18.3048996 C17.9099818,18.6968175 17.7025271,19.2364763 17.731,19.79 L17.802,21.19 C17.8386763,22.0132298 17.3562547,22.7714008 16.595002,23.0869112 C15.8337493,23.4024216 14.9564352,23.2078094 14.4,22.6 L13.459,21.559 C13.0875627,21.1476267 12.5592506,20.9128461 12.005,20.9128461 C11.4507494,20.9128461 10.9224373,21.1476267 10.551,21.559 L9.606,22.6 C9.05039849,23.2107072 8.17154462,23.4075205 7.40854427,23.0921053 C6.64554393,22.77669 6.16219685,22.0167589 6.2,21.192 L6.272,19.792 C6.30047291,19.2384763 6.09301824,18.6988175 5.70110039,18.3068996 C5.30918254,17.9149818 4.76952371,17.7075271 4.216,17.736 L2.816,17.807 C1.9887315,17.8501791 1.2238102,17.3680752 0.905882549,16.6031179 C0.587954903,15.8381607 0.785828057,14.9559051 1.4,14.4 L2.441,13.46 C2.85242135,13.0883816 3.08721549,12.5599076 3.08721549,12.0055 C3.08721549,11.4510924 2.85242135,10.9226184 2.441,10.551 L1.4,9.606 C0.787888201,9.05074823 0.590308176,8.17095902 0.906222285,7.40729439 C1.22213639,6.64362977 1.98351314,6.16054346 2.809,6.2 L4.209,6.271 C4.76359394,6.30015819 5.30448068,6.0924325 5.69698868,5.69954306 C6.08949667,5.30665362 6.29669688,4.76556536 6.267,4.211 L6.2,2.81 C6.16128929,1.98486935 6.64431485,1.22411872 7.40753891,0.908162781 C8.17076296,0.592206845 9.0501656,0.788945804 9.606,1.4 L10.546,2.438 Z" id="Shape"></path>
                <circle id="Oval" cx="12" cy="12.001" r="4.5"></circle>
            </g>
        </g>
    </g>
</svg>