<?xml version="1.0" encoding="UTF-8"?>
<svg width="20px" height="20px" viewBox="0 0 20 20" version="1.1" xmlns="http://www.w3.org/2000/svg" xmlns:xlink="http://www.w3.org/1999/xlink">
    <!-- Generator: Sketch 52.1 (67048) - http://www.bohemiancoding.com/sketch -->
    <title>icons/outline/terms</title>
    <desc>Created with Sketch.</desc>
    <g id="icons/outline/terms" stroke="none" stroke-width="1" fill="none" fill-rule="evenodd" stroke-linecap="round" stroke-linejoin="round">
        <g id="Users-/-Geometric-Close-Up-Single-User-Actions-Neutral-/-single-neutral-actions-add" stroke="#000000" stroke-width="1.5">
            <g id="Group">
                <g id="notes-tasks">
                    <path d="M13.125,3.75 L16.25,3.75 C16.9403559,3.75 17.5,4.30964406 17.5,5 L17.5,18.125 C17.5,18.8153559 16.9403559,19.375 16.25,19.375 L3.75,19.375 C3.05964406,19.375 2.5,18.8153559 2.5,18.125 L2.5,5 C2.5,4.30964406 3.05964406,3.75 3.75,3.75 L6.875,3.75 C6.875,2.02411016 8.27411016,0.625 10,0.625 C11.7258898,0.625 13.125,2.02411016 13.125,3.75 Z" id="Shape"></path>
                    <path d="M10,3.125 C10.172589,3.125 10.3125,3.26491102 10.3125,3.4375 C10.3125,3.61008898 10.172589,3.75 10,3.75 C9.82741102,3.75 9.6875,3.61008898 9.6875,3.4375 C9.6875,3.26491102 9.82741102,3.125 10,3.125" id="Shape"></path>
                    <path d="M5.625,8.75 L10,8.75" id="Shape"></path>
                    <path d="M12.5,8.75 L14.375,8.75" id="Shape"></path>
                    <path d="M14.375,11.875 L10,11.875" id="Shape"></path>
                    <path d="M7.5,11.875 L5.625,11.875" id="Shape"></path>
                    <path d="M5.625,15 L10,15" id="Shape"></path>
                    <path d="M12.5,15 L14.375,15" id="Shape"></path>
                </g>
            </g>
        </g>
    </g>
</svg>