<svg xmlns="http://www.w3.org/2000/svg" viewBox="0 0 24 24"><defs><style>.a{fill:none;stroke:currentColor;stroke-linecap:round;stroke-linejoin:round;stroke-width:1.5px;}</style></defs><title>text-format-1</title><rect class="a" x="0.75" y="0.748" width="4.5" height="4.5" rx="0.75" ry="0.75"/><rect class="a" x="0.75" y="18.748" width="4.5" height="4.5" rx="0.75" ry="0.75"/><rect class="a" x="17.25" y="0.748" width="4.5" height="4.5" rx="0.75" ry="0.75"/><rect class="a" x="17.25" y="18.748" width="4.5" height="4.5" rx="0.75" ry="0.75"/><line class="a" x1="5.25" y1="2.248" x2="17.25" y2="2.248"/><line class="a" x1="20.25" y1="5.248" x2="20.25" y2="18.748"/><line class="a" x1="17.25" y1="21.748" x2="5.25" y2="21.748"/><line class="a" x1="2.25" y1="18.748" x2="2.25" y2="5.248"/><path class="a" d="M6.75,9A2.25,2.25,0,0,1,9,6.748h4.5A2.25,2.25,0,0,1,15.75,9"/><line class="a" x1="11.25" y1="6.748" x2="11.25" y2="17.248"/><line class="a" x1="8.219" y1="17.248" x2="14.219" y2="17.248"/></svg>