<svg xmlns="http://www.w3.org/2000/svg" viewBox="0 0 24 24"><defs><style>.a{fill:none;stroke:currentColor;stroke-linecap:round;stroke-linejoin:round;stroke-width:1.5px;}</style></defs><title>text-input-area</title><path class="a" d="M23.25,15.748a1.5,1.5,0,0,1-1.5,1.5"/><path class="a" d="M21.75,6.748a1.5,1.5,0,0,1,1.5,1.5"/><path class="a" d="M.75,8.248a1.5,1.5,0,0,1,1.5-1.5"/><path class="a" d="M2.25,17.248a1.5,1.5,0,0,1-1.5-1.5"/><line class="a" x1="0.75" y1="11.248" x2="0.75" y2="12.748"/><line class="a" x1="23.25" y1="11.248" x2="23.25" y2="12.748"/><line class="a" x1="5.25" y1="6.748" x2="6.75" y2="6.748"/><line class="a" x1="9.75" y1="6.748" x2="11.25" y2="6.748"/><line class="a" x1="17.25" y1="6.748" x2="18.75" y2="6.748"/><line class="a" x1="5.25" y1="17.248" x2="6.75" y2="17.248"/><line class="a" x1="9.75" y1="17.248" x2="11.25" y2="17.248"/><line class="a" x1="17.25" y1="17.248" x2="18.75" y2="17.248"/><line class="a" x1="14.25" y1="18.748" x2="14.25" y2="5.248"/><path class="a" d="M9.75,23.248a4.5,4.5,0,0,0,4.5-4.5,4.5,4.5,0,0,0,4.5,4.5"/><path class="a" d="M9.75.748a4.5,4.5,0,0,1,4.5,4.5,4.5,4.5,0,0,1,4.5-4.5"/><line class="a" x1="11.25" y1="14.248" x2="17.25" y2="14.248"/></svg>