<?xml version="1.0" encoding="UTF-8"?>
<svg width="25px" height="24px" viewBox="0 0 25 24" version="1.1" xmlns="http://www.w3.org/2000/svg" xmlns:xlink="http://www.w3.org/1999/xlink">
    <!-- Generator: Sketch 52.1 (67048) - http://www.bohemiancoding.com/sketch -->
    <title>icons/solid/competition_primary</title>
    <desc>Created with Sketch.</desc>
    <g id="icons/solid/competition_primary" stroke="none" stroke-width="1" fill="none" fill-rule="evenodd" stroke-linecap="round" stroke-linejoin="round">
        <g id="Group" transform="translate(0.500000, 0.000000)" stroke="#000000" stroke-width="1.5">
            <g id="award-trophy-person">
                <path d="M19.5,13.964 C21.8974969,11.7002645 23.2543314,8.54734305 23.2500206,5.25 L20.25,5.25" id="Shape"></path>
                <path d="M10.5,23.25 L16.993,23.25 C16.5729687,22.0627927 15.6746848,21.1059093 14.5163529,20.6117891 C13.358021,20.1176688 12.0456386,20.131528 10.898,20.65" id="Shape"></path>
                <path d="M11.25,0.75 L18.75,0.75 C20.4544743,3.02263235 20.728644,6.06322175 19.4582039,8.60410197 C18.1877638,11.1449822 15.5907904,12.75 12.75,12.75 L12.75,20.25" id="Shape" fill="#B0C9E7"></path>
                <circle id="Oval" fill="#B0C9E7" cx="5.25" cy="3.75" r="3"></circle>
                <path d="M9.75,12.75 C9.74999996,10.2647187 7.73528135,8.25000007 5.25,8.25000007 C2.76471865,8.25000007 0.750000037,10.2647187 0.75,12.75 L0.75,15.75 L2.25,15.75 L3,23.25 L7.5,23.25 L8.25,15.75 L9.75,15.75 L9.75,12.75 Z" id="Shape" fill="#B0C9E7"></path>
            </g>
        </g>
    </g>
</svg>