<?xml version="1.0" encoding="UTF-8"?>
<svg width="24px" height="24px" viewBox="0 0 24 24" version="1.1" xmlns="http://www.w3.org/2000/svg" xmlns:xlink="http://www.w3.org/1999/xlink">
    <!-- Generator: Sketch 52.1 (67048) - http://www.bohemiancoding.com/sketch -->
    <title>icons/solid/literature</title>
    <desc>Created with Sketch.</desc>
    <g id="icons/solid/literature" stroke="none" stroke-width="1" fill="none" fill-rule="evenodd" stroke-linecap="round" stroke-linejoin="round">
        <g id="Group" stroke="#000000" stroke-width="1.5">
            <g id="content-pencil-quill">
                <path d="M23.246,23.214 L17.25,17.217" id="Shape"></path>
                <path d="M3.693,11.221 C1.69840077,8.11231751 0.693829517,4.47166204 0.812,0.78 C0.932,0.78 7.496,0.721 11.99,3.68" id="Shape" fill="#FFFFFF"></path>
                <path d="M19.336,13.525 C20.223,16.042 20.254,18.204 19.245,19.213 C18.186,20.272 15.999,20.269 13.489,19.35" id="Shape" fill="#FFFFFF"></path>
                <path d="M22.164,1.8 C20.9925004,0.628854185 19.0934996,0.628854185 17.922,1.8 L2.956,16.762 L0.746,23.221 L7.2,21 L22.164,6.038 C23.3324825,4.86695991 23.3324825,2.97104009 22.164,1.8 Z" id="Shape" fill="#FFFFFF"></path>
                <path d="M17.041,2.677 L21.283,6.919" id="Shape"></path>
                <path d="M2.956,16.762 L7.203,21" id="Shape"></path>
            </g>
        </g>
    </g>
</svg>