<?xml version="1.0" encoding="UTF-8"?>
<svg width="18px" height="25px" viewBox="0 0 18 25" version="1.1" xmlns="http://www.w3.org/2000/svg" xmlns:xlink="http://www.w3.org/1999/xlink">
    <!-- Generator: Sketch 53 (72520) - https://sketchapp.com -->
    <title>Icons/solid/medal_3</title>
    <desc>Created with Sketch.</desc>
    <g id="Icons/solid/medal_3" stroke="none" stroke-width="1" fill="none" fill-rule="evenodd">
        <g id="ranking-winner-ribbon" transform="translate(0.000000, 1.000000)">
            <circle id="Oval" stroke="#B6968A" stroke-width="1.5" fill="#8D6E62" stroke-linecap="round" stroke-linejoin="round" cx="9" cy="9" r="8.25"></circle>
            <polyline id="Path" stroke="#B6968A" stroke-width="1.5" fill="#8D6E62" stroke-linecap="round" stroke-linejoin="round" points="12.75 16.349 14.25 23.25 9 20.25 3.75 23.25 5.25 16.349"></polyline>
            <path d="M8.05029297,7.8203125 L8.80224609,7.8203125 C9.1603208,7.8203125 9.42561763,7.73079517 9.59814453,7.55175781 C9.77067144,7.37272046 9.85693359,7.13509263 9.85693359,6.83886719 C9.85693359,6.55240742 9.77148523,6.32942788 9.60058594,6.16992188 C9.42968665,6.01041587 9.1945002,5.93066406 8.89501953,5.93066406 C8.62483589,5.93066406 8.39860117,6.00471931 8.21630859,6.15283203 C8.03401602,6.30094475 7.94287109,6.49381392 7.94287109,6.73144531 L6.53173828,6.73144531 C6.53173828,6.36034971 6.63183494,6.02750798 6.83203125,5.73291016 C7.03222756,5.43831233 7.31217268,5.20800864 7.671875,5.04199219 C8.03157732,4.87597573 8.42789497,4.79296875 8.86083984,4.79296875 C9.61279673,4.79296875 10.2019835,4.97281721 10.628418,5.33251953 C11.0548524,5.69222185 11.2680664,6.18782236 11.2680664,6.81933594 C11.2680664,7.1448584 11.1687835,7.44433457 10.9702148,7.71777344 C10.7716461,7.9912123 10.5112321,8.20117114 10.1889648,8.34765625 C10.5893575,8.49088613 10.8880198,8.70572773 11.0849609,8.9921875 C11.281902,9.27864727 11.3803711,9.61718555 11.3803711,10.0078125 C11.3803711,10.6393261 11.1500674,11.1455059 10.6894531,11.5263672 C10.2288388,11.9072285 9.61930718,12.0976562 8.86083984,12.0976562 C8.15120088,12.0976562 7.5709658,11.9104836 7.12011719,11.5361328 C6.66926858,11.161782 6.44384766,10.6669953 6.44384766,10.0517578 L7.85498047,10.0517578 C7.85498047,10.3186862 7.95507712,10.536783 8.15527344,10.7060547 C8.35546975,10.8753264 8.60204932,10.9599609 8.89501953,10.9599609 C9.23030767,10.9599609 9.49316311,10.8712574 9.68359375,10.6938477 C9.87402439,10.5164379 9.96923828,10.2812515 9.96923828,9.98828125 C9.96923828,9.27864229 9.57861719,8.92382812 8.79736328,8.92382812 L8.05029297,8.92382812 L8.05029297,7.8203125 Z" id="3" fill="#CDAFA4"></path>
        </g>
    </g>
</svg>