<?xml version="1.0" encoding="UTF-8"?>
<svg width="18px" height="25px" viewBox="0 0 18 25" version="1.1" xmlns="http://www.w3.org/2000/svg" xmlns:xlink="http://www.w3.org/1999/xlink">
    <!-- Generator: Sketch 53 (72520) - https://sketchapp.com -->
    <title>Icons/solid/medal_2</title>
    <desc>Created with Sketch.</desc>
    <g id="Icons/solid/medal_2" stroke="none" stroke-width="1" fill="none" fill-rule="evenodd">
        <g id="ranking-winner-ribbon" transform="translate(0.000000, 1.000000)">
            <circle id="Oval" stroke="#D4D2C5" stroke-width="1.5" fill="#ADAB9E" stroke-linecap="round" stroke-linejoin="round" cx="9" cy="9" r="8.25"></circle>
            <polyline id="Path" stroke="#D4D2C5" stroke-width="1.5" fill="#ADAB9E" stroke-linecap="round" stroke-linejoin="round" points="12.75 16.349 14.25 23.25 9 20.25 3.75 23.25 5.25 16.349"></polyline>
            <path d="M11.3564453,12 L6.48339844,12 L6.48339844,11.0332031 L8.78320312,8.58203125 C9.09895991,8.23697744 9.33251877,7.93587368 9.48388672,7.67871094 C9.63525466,7.42154819 9.7109375,7.17741001 9.7109375,6.94628906 C9.7109375,6.63053228 9.63118569,6.38232512 9.47167969,6.20166016 C9.31217368,6.02099519 9.08431138,5.93066406 8.78808594,5.93066406 C8.46907393,5.93066406 8.2176116,6.04052625 8.03369141,6.26025391 C7.84977122,6.47998157 7.7578125,6.76887842 7.7578125,7.12695312 L6.34179688,7.12695312 C6.34179688,6.69400825 6.44514871,6.29850439 6.65185547,5.94042969 C6.85856223,5.58235498 7.15071426,5.30159607 7.52832031,5.09814453 C7.90592637,4.89469299 8.33398198,4.79296875 8.8125,4.79296875 C9.54492554,4.79296875 10.1137675,4.96874824 10.519043,5.3203125 C10.9243184,5.67187676 11.1269531,6.16829106 11.1269531,6.80957031 C11.1269531,7.16113457 11.0358082,7.51920391 10.8535156,7.88378906 C10.671223,8.24837422 10.3587262,8.67317466 9.91601562,9.15820312 L8.29980469,10.8623047 L11.3564453,10.8623047 L11.3564453,12 Z" id="2" fill="#E5E4DA"></path>
        </g>
    </g>
</svg>